<svg width="14" height="19" viewBox="0 0 14 19" fill="none" xmlns="http://www.w3.org/2000/svg">
<path d="M11.9412 18.5111H2.05883C1.76327 18.5152 1.47031 18.4554 1.20004 18.3357C0.929764 18.2161 0.688572 18.0393 0.493006 17.8177C0.29744 17.5961 0.152125 17.3347 0.0670298 17.0517C-0.0180658 16.7686 -0.0409295 16.4705 6.92904e-06 16.1777L1.09805 8.29015C1.151 7.90769 1.34035 7.55724 1.63124 7.30335C1.92212 7.04946 2.29495 6.90921 2.68105 6.90845H11.319C11.7051 6.90921 12.0779 7.04946 12.3688 7.30335C12.6597 7.55724 12.849 7.90769 12.902 8.29015L13.9817 16.1777C14.0224 16.4689 14 16.7655 13.9159 17.0472C13.8319 17.329 13.6882 17.5894 13.4947 17.8107C13.3011 18.032 13.0622 18.2091 12.7942 18.33C12.5261 18.4508 12.2352 18.5126 11.9412 18.5111ZM2.68105 8.281C2.62585 8.2808 2.57259 8.30141 2.53189 8.33872C2.4912 8.37602 2.46605 8.42729 2.46144 8.4823L1.38171 16.3607C1.36712 16.4577 1.37378 16.5567 1.40121 16.6509C1.42865 16.745 1.47621 16.8321 1.5406 16.906C1.60499 16.98 1.68468 17.0391 1.77416 17.0792C1.86364 17.1194 1.96077 17.1396 2.05883 17.1385H11.9412C12.0393 17.1388 12.1363 17.1186 12.2261 17.0792C12.3159 17.0398 12.3965 16.9821 12.4628 16.9098C12.5253 16.8338 12.572 16.7461 12.6003 16.6518C12.6286 16.5576 12.6378 16.4586 12.6275 16.3607L11.5477 8.4823C11.5392 8.42728 11.5116 8.377 11.4698 8.34022C11.428 8.30344 11.3746 8.28248 11.319 8.281H2.68105Z" fill="#AB67A5"/>
<path d="M10.1935 8.28105C10.0122 8.27868 9.83902 8.20561 9.71082 8.07742C9.58263 7.94923 9.50957 7.77605 9.5072 7.59477V3.87974C9.5072 3.21479 9.24305 2.57708 8.77286 2.10689C8.30267 1.6367 7.66496 1.37255 7.00001 1.37255C6.33506 1.37255 5.69735 1.6367 5.22716 2.10689C4.75697 2.57708 4.49282 3.21479 4.49282 3.87974V7.59477C4.49282 7.77678 4.42051 7.95134 4.29181 8.08004C4.16311 8.20874 3.98856 8.28105 3.80654 8.28105C3.62453 8.28105 3.44998 8.20874 3.32127 8.08004C3.19257 7.95134 3.12027 7.77678 3.12027 7.59477V3.87974C3.12027 2.85077 3.52903 1.86394 4.25662 1.13635C4.98421 0.408757 5.97104 0 7.00001 0C8.02898 0 9.01581 0.408757 9.7434 1.13635C10.471 1.86394 10.8797 2.85077 10.8797 3.87974V7.59477C10.8774 7.77605 10.8043 7.94923 10.6761 8.07742C10.5479 8.20561 10.3747 8.27868 10.1935 8.28105Z" fill="#AB67A5"/>
<path d="M10.4954 15.7112H3.50457C3.32256 15.7112 3.14801 15.6389 3.0193 15.5102C2.8906 15.3815 2.8183 15.2069 2.8183 15.0249C2.8183 14.8429 2.8906 14.6683 3.0193 14.5396C3.14801 14.4109 3.32256 14.3386 3.50457 14.3386H10.4954C10.6774 14.3386 10.852 14.4109 10.9807 14.5396C11.1094 14.6683 11.1817 14.8429 11.1817 15.0249C11.1817 15.2069 11.1094 15.3815 10.9807 15.5102C10.852 15.6389 10.6774 15.7112 10.4954 15.7112Z" fill="#AB67A5"/>
</svg>
