<svg width="16" height="16" viewBox="0 0 16 16" fill="none" xmlns="http://www.w3.org/2000/svg">
<path d="M6.70749 13.415C5.38087 13.415 4.08405 13.0216 2.98101 12.2846C1.87797 11.5475 1.01825 10.5 0.51058 9.27433C0.00290624 8.0487 -0.129924 6.70005 0.128885 5.39892C0.387695 4.0978 1.02652 2.90264 1.96458 1.96458C2.90264 1.02652 4.0978 0.387695 5.39892 0.128885C6.70005 -0.129924 8.0487 0.00290624 9.27433 0.51058C10.5 1.01825 11.5475 1.87797 12.2846 2.98101C13.0216 4.08405 13.415 5.38087 13.415 6.70749C13.4129 8.4858 12.7056 10.1907 11.4482 11.4482C10.1907 12.7056 8.4858 13.4129 6.70749 13.415ZM6.70749 1.16386C5.60673 1.16083 4.52986 1.48467 3.61335 2.09433C2.69685 2.70398 1.98197 3.57202 1.55933 4.5884C1.13669 5.60479 1.02532 6.72377 1.23932 7.80353C1.45333 8.88328 1.98308 9.87519 2.76143 10.6535C3.53978 11.4319 4.53169 11.9616 5.61145 12.1757C6.6912 12.3897 7.81018 12.2783 8.82657 11.8556C9.84296 11.433 10.711 10.7181 11.3206 9.80162C11.9303 8.88511 12.2541 7.80824 12.2511 6.70749C12.2491 5.23643 11.6649 3.82598 10.6261 2.78435C9.58737 1.74272 8.17853 1.15461 6.70749 1.14854V1.16386Z" fill="#AB67A5"/>
<path d="M14.9157 15.4899C14.7756 15.4788 14.6446 15.416 14.5482 15.3138L10.8729 11.6385C10.8164 11.5859 10.7712 11.5225 10.7398 11.452C10.7084 11.3816 10.6915 11.3056 10.6902 11.2284C10.6888 11.1513 10.703 11.0747 10.7319 11.0032C10.7608 10.9317 10.8038 10.8668 10.8583 10.8122C10.9128 10.7577 10.9778 10.7147 11.0493 10.6858C11.1208 10.657 11.1974 10.6428 11.2745 10.6441C11.3516 10.6455 11.4276 10.6624 11.4981 10.6938C11.5685 10.7251 11.6319 10.7704 11.6845 10.8268L15.3139 14.5481C15.4097 14.6526 15.4628 14.7892 15.4628 14.9309C15.4628 15.0727 15.4097 15.2093 15.3139 15.3138C15.2627 15.3683 15.2011 15.412 15.1327 15.4422C15.0643 15.4725 14.9905 15.4887 14.9157 15.4899Z" fill="#AB67A5"/>
</svg>
