<svg width="12" height="17" viewBox="0 0 12 17" fill="none" xmlns="http://www.w3.org/2000/svg">
<path d="M5.95056 8.75275C5.085 8.75275 4.23887 8.49608 3.51918 8.0152C2.79949 7.53432 2.23856 6.85082 1.90732 6.05114C1.57608 5.25146 1.48942 4.37152 1.65828 3.52259C1.82714 2.67365 2.24395 1.89386 2.856 1.28181C3.46805 0.669765 4.24784 0.252956 5.09678 0.0840928C5.94571 -0.0847706 6.82565 0.00189621 7.62533 0.333134C8.42501 0.664371 9.1085 1.2253 9.58938 1.94499C10.0703 2.66468 10.3269 3.51081 10.3269 4.37638C10.3269 5.53706 9.86586 6.65021 9.04513 7.47094C8.2244 8.29167 7.11125 8.75275 5.95056 8.75275ZM5.95056 1.23627C5.32848 1.23137 4.71896 1.41136 4.19933 1.75341C3.6797 2.09546 3.27338 2.58415 3.03191 3.15748C2.79045 3.73081 2.72473 4.36294 2.84308 4.97368C2.96144 5.58443 3.25853 6.14625 3.69669 6.58788C4.13484 7.02951 4.6943 7.33104 5.30408 7.45422C5.91387 7.5774 6.5465 7.51667 7.12173 7.27975C7.69695 7.04283 8.18883 6.64038 8.53498 6.12347C8.88112 5.60656 9.06593 4.99848 9.06595 4.37638C9.06383 3.54849 8.7357 2.75476 8.15261 2.16704C7.56952 1.57933 6.77841 1.24493 5.95056 1.23627Z" fill="#AB67A5"/>
<path d="M9.73352 16.6732H2.26648C1.66537 16.6732 1.08889 16.4344 0.663838 16.0094C0.23879 15.5843 0 15.0078 0 14.4067L0 13.5166C2.37122e-08 11.9253 0.632141 10.3992 1.75736 9.27396C2.88258 8.14874 4.4087 7.5166 6 7.5166C7.5913 7.5166 9.11742 8.14874 10.2426 9.27396C11.3679 10.3992 12 11.9253 12 13.5166V14.4067C12 15.0078 11.7612 15.5843 11.3362 16.0094C10.9111 16.4344 10.3346 16.6732 9.73352 16.6732ZM6 8.75287C4.73658 8.75287 3.5249 9.25476 2.63153 10.1481C1.73816 11.0415 1.23626 12.2532 1.23626 13.5166V14.4067C1.23626 14.6799 1.3448 14.942 1.53801 15.1352C1.73121 15.3284 1.99325 15.4369 2.26648 15.4369H9.73352C10.0067 15.4369 10.2688 15.3284 10.462 15.1352C10.6552 14.942 10.7637 14.6799 10.7637 14.4067V13.5166C10.7637 12.2532 10.2618 11.0415 9.36847 10.1481C8.4751 9.25476 7.26342 8.75287 6 8.75287Z" fill="#AB67A5"/>
</svg>
